<svg width="500" height="75" viewBox="0 0 500 75" fill="none" xmlns="http://www.w3.org/2000/svg">
<path d="M500 28.3774C500 30.9482 499.358 33.3048 498.072 35.4471C496.84 37.5895 495.153 39.3033 493.011 40.5887C490.922 41.8206 488.566 42.4365 485.941 42.4365H455.172C456.297 44.7931 457.957 46.7212 460.153 48.2208C462.402 49.7204 464.92 50.4703 467.705 50.4703H493.975V58.504H467.705C464.652 58.504 461.786 57.9416 459.108 56.8169C456.484 55.6386 454.154 54.0319 452.119 51.9967C450.137 49.9615 448.584 47.6317 447.46 45.0073C446.335 42.3294 445.772 39.464 445.772 36.4112C445.772 33.3584 446.335 30.5198 447.46 27.8954C448.584 25.2175 450.137 22.8609 452.119 20.8257C454.154 18.7905 456.484 17.2105 459.108 16.0858C461.786 14.9075 464.652 14.3184 467.705 14.3184H485.941C488.566 14.3184 490.922 14.9611 493.011 16.2465C495.153 17.4783 496.84 19.1654 498.072 21.3077C499.358 23.3965 500 25.7531 500 28.3774ZM485.941 34.4027C487.601 34.4027 489.021 33.8136 490.199 32.6353C491.377 31.457 491.966 30.0377 491.966 28.3774C491.966 26.7171 491.377 25.2978 490.199 24.1195C489.021 22.9413 487.601 22.3521 485.941 22.3521H467.705C465.348 22.3521 463.179 22.8877 461.197 23.9589C459.269 25.03 457.662 26.4761 456.377 28.2971C455.092 30.1181 454.288 32.1533 453.967 34.4027H485.941Z" fill="#0EBB45"/>
<path d="M447.581 22.3521H429.144C427.484 22.3521 426.064 22.9413 424.886 24.1195C423.708 25.2978 423.119 26.7171 423.119 28.3774V58.504H415.085V28.3774C415.085 25.7531 415.701 23.3965 416.933 21.3077C418.218 19.1654 419.932 17.4783 422.074 16.2465C424.217 14.9611 426.573 14.3184 429.144 14.3184L447.581 14.3184V22.3521Z" fill="#0EBB45"/>
<path d="M405.796 58.504H365.627C363.057 58.504 360.7 57.8881 358.558 56.6562C356.415 55.3708 354.702 53.6838 353.416 51.595C352.184 49.4526 351.568 47.0693 351.568 44.4449C351.568 41.8206 352.184 39.464 353.416 37.3752C354.702 35.2329 356.415 33.5458 358.558 32.314C360.7 31.0286 363.057 30.3859 365.627 30.3859H393.745V38.4196H365.627C363.967 38.4196 362.548 39.0088 361.37 40.187C360.191 41.3653 359.602 42.7846 359.602 44.4449C359.602 46.1052 360.191 47.5245 361.37 48.7028C362.548 49.8811 363.967 50.4703 365.627 50.4703H397.762V28.3774C397.762 26.7171 397.173 25.2978 395.995 24.1195C394.817 22.9413 393.397 22.3521 391.737 22.3521H359.602V14.3184H391.737C394.361 14.3184 396.718 14.9611 398.807 16.2465C400.949 17.4783 402.636 19.1654 403.868 21.3077C405.153 23.3965 405.796 25.7531 405.796 28.3774V58.504Z" fill="#0EBB45"/>
<path d="M348.29 58.504H322.02C318.967 58.504 316.102 57.9416 313.424 56.8169C310.8 55.6386 308.47 54.0319 306.435 51.9967C304.453 49.9615 302.9 47.6317 301.775 45.0073C300.65 42.3294 300.088 39.464 300.088 36.4112C300.088 33.3584 300.65 30.5198 301.775 27.8954C302.9 25.2175 304.453 22.8609 306.435 20.8257C308.47 18.7905 310.8 17.2105 313.424 16.0858C316.102 14.9075 318.967 14.3184 322.02 14.3184H348.29V22.3521H322.02C319.449 22.3521 317.119 22.9948 315.031 24.2802C312.942 25.5656 311.255 27.2795 309.969 29.4218C308.738 31.5106 308.122 33.8404 308.122 36.4112C308.122 38.982 308.738 41.3386 309.969 43.4809C311.255 45.5697 312.942 47.2568 315.031 48.5422C317.119 49.8276 319.449 50.4703 322.02 50.4703H348.29V58.504Z" fill="#0EBB45"/>
<path d="M253.293 58.504H245.259V14.3184H273.144C276.197 14.3184 279.035 14.9075 281.66 16.0858C284.338 17.2105 286.668 18.7905 288.649 20.8257C290.684 22.8609 292.264 25.2175 293.389 27.8954C294.514 30.5198 295.076 33.3584 295.076 36.4112V58.504H287.042V36.4112C287.042 33.8404 286.427 31.5106 285.195 29.4218C283.963 27.2795 282.276 25.5656 280.133 24.2802C278.045 22.9948 275.715 22.3521 273.144 22.3521H253.293V58.504Z" fill="white"/>
<path d="M236.366 60.4425C236.366 63.0133 235.723 65.3698 234.438 67.5122C233.206 69.6545 231.519 71.3416 229.377 72.5734C227.234 73.8588 224.878 74.5015 222.307 74.5015H193.024V66.4678H222.307C223.967 66.4678 225.387 65.8786 226.565 64.7003C227.743 63.5221 228.332 62.1028 228.332 60.4425V22.3521H209.091C206.52 22.3521 204.191 22.9948 202.102 24.2802C200.013 25.5656 198.326 27.2795 197.041 29.4218C195.809 31.5106 195.193 33.8404 195.193 36.4112C195.193 38.982 195.809 41.3386 197.041 43.4809C198.326 45.5697 200.013 47.2568 202.102 48.5422C204.191 49.774 206.52 50.4167 209.091 50.4703H224.315V58.504H209.091C206.038 58.504 203.173 57.9417 200.495 56.8169C197.871 55.6386 195.541 54.0319 193.506 51.9967C191.524 49.9615 189.971 47.6317 188.846 45.0073C187.722 42.3294 187.159 39.464 187.159 36.4112C187.159 33.3584 187.722 30.5198 188.846 27.8954C189.971 25.2175 191.524 22.8609 193.506 20.8257C195.541 18.7905 197.871 17.2105 200.495 16.0858C203.173 14.9075 206.038 14.3184 209.091 14.3184H236.366V60.4425Z" fill="white"/>
<path d="M180.508 58.2979H172.475V14.1123H180.508V58.2979Z" fill="white"/>
<path d="M180.508 7.89422H172.475V0H180.508L180.508 7.89422Z" fill="white"/>
<path d="M165.825 44.2389C165.825 46.8632 165.183 49.2466 163.897 51.3889C162.666 53.4777 160.978 55.1648 158.836 56.4502C156.747 57.682 154.391 58.298 151.766 58.298H117.623V50.2642H151.766C153.427 50.2642 154.846 49.6751 156.024 48.4968C157.203 47.3185 157.792 45.8992 157.792 44.2389C157.792 42.5786 157.203 41.1593 156.024 39.981C154.846 38.8027 153.427 38.2136 151.766 38.2136H129.674C127.478 38.2136 125.443 37.678 123.568 36.6068C121.747 35.5356 120.301 34.0896 119.23 32.2686C118.159 30.394 117.623 28.3588 117.623 26.1629C117.623 23.9135 118.159 21.8783 119.23 20.0573C120.301 18.2363 121.747 16.7902 123.568 15.7191C125.443 14.6479 127.478 14.1123 129.674 14.1123H161.809V22.1461H129.674C128.549 22.1461 127.585 22.5477 126.782 23.3511C126.032 24.1009 125.657 25.0382 125.657 26.1629C125.657 27.2877 126.032 28.2517 126.782 29.0551C127.585 29.8049 128.549 30.1798 129.674 30.1798H151.766C154.391 30.1798 156.747 30.8225 158.836 32.1079C160.978 33.3398 162.666 35.0268 163.897 37.1692C165.183 39.258 165.825 41.6145 165.825 44.2389Z" fill="white"/>
<path d="M113.423 28.1714C113.423 30.7422 112.78 33.0987 111.495 35.2411C110.263 37.3834 108.576 39.0973 106.434 40.3827C104.345 41.6145 101.988 42.2304 99.364 42.2304H68.5948C69.7195 44.587 71.3798 46.5151 73.5757 48.0147C75.8251 49.5144 78.3424 50.2642 81.1274 50.2642H107.398V58.298H81.1274C78.0746 58.298 75.2092 57.7356 72.5313 56.6109C69.907 55.4326 67.5772 53.8258 65.542 51.7906C63.5603 49.7554 62.0071 47.4256 60.8824 44.8012C59.7577 42.1233 59.1953 39.258 59.1953 36.2051C59.1953 33.1523 59.7577 30.3137 60.8824 27.6893C62.0071 25.0114 63.5603 22.6549 65.542 20.6196C67.5772 18.5844 69.907 17.0045 72.5313 15.8797C75.2092 14.7014 78.0746 14.1123 81.1274 14.1123H99.364C101.988 14.1123 104.345 14.755 106.434 16.0404C108.576 17.2722 110.263 18.9593 111.495 21.1017C112.78 23.1904 113.423 25.547 113.423 28.1714ZM99.364 34.1967C101.024 34.1967 102.444 33.6075 103.622 32.4293C104.8 31.251 105.389 29.8317 105.389 28.1714C105.389 26.5111 104.8 25.0918 103.622 23.9135C102.444 22.7352 101.024 22.1461 99.364 22.1461H81.1274C78.7709 22.1461 76.6017 22.6816 74.6201 23.7528C72.692 24.824 71.0852 26.2701 69.7998 28.091C68.5144 29.912 67.7111 31.9472 67.3897 34.1967H99.364Z" fill="white"/>
<path d="M52.0586 58.2979H44.0249V22.146H21.9321C19.3613 22.146 17.0315 22.7887 14.9428 24.0741C12.854 25.3059 11.1669 26.993 9.8815 29.1354C8.64966 31.2777 8.03374 33.6343 8.03374 36.2051C8.03374 38.7759 8.64966 41.1324 9.8815 43.2748C11.1669 45.3635 12.854 47.0506 14.9428 48.336C17.0315 49.5679 19.3613 50.2106 21.9321 50.2641H40.008V58.2979H21.9321C18.8793 58.2979 16.0139 57.7355 13.336 56.6108C10.7117 55.4325 8.38187 53.8258 6.34665 51.7906C4.365 49.7553 2.81181 47.4255 1.68709 44.8012C0.562362 42.1233 0 39.2579 0 36.2051C0 33.1522 0.562362 30.3136 1.68709 27.6893C2.81181 25.0114 4.365 22.6548 6.34665 20.6196C8.38187 18.5844 10.7117 17.0044 13.336 15.8797C16.0139 14.7014 18.8793 14.1122 21.9321 14.1122H44.0249V0H52.0586V58.2979Z" fill="white"/>
</svg>
