<svg width="399" height="58" viewBox="0 0 399 58" fill="none" xmlns="http://www.w3.org/2000/svg">
<path fill-rule="evenodd" clip-rule="evenodd" d="M241.894 27.4884C241.773 28.7287 241.652 30.4031 241.652 32.5736V33.6279L241.955 56.2016H248.676L246.678 10L228.451 38.5892C227.058 40.7597 225.847 42.9923 224.817 45.3488C224.151 42.8062 223.364 40.6357 222.637 38.7132L212.161 10L197.93 56.2016H204.834L211.313 33.5039L211.35 33.3736C211.94 31.2563 212.466 29.3723 212.585 27.4884C213.312 30.093 213.857 31.9535 214.341 33.2558L223.303 58L238.927 33.1938C240.138 31.3333 241.228 29.5349 241.894 27.4884ZM315.976 56.2018L300.171 10.1243L275.101 56.2018H282.489L288.181 45.7212H305.44L308.952 56.2018H315.976ZM300.232 28.853L303.562 39.8297H290.906L296.538 28.977C297.325 27.4266 298.173 25.5661 299.081 23.3336C299.505 25.8142 299.868 27.6747 300.232 28.853ZM322.579 10.1243L346.196 37.8452C347.771 39.7057 349.164 41.5041 350.435 43.4266C350.435 41.132 350.677 38.8995 350.98 36.5429L354.25 11.8607H360.609L354.735 57.9382L331.057 30.2173C329.483 28.3568 328.03 26.5584 326.818 24.5739C326.763 26.6717 326.505 28.7176 326.23 30.9013L326.23 30.9015C326.204 31.1063 326.178 31.3123 326.152 31.5196L323.064 56.2018H316.706L322.579 10.1243ZM369.994 11.8606L377.2 26.7443C377.519 27.3514 377.873 28.2399 378.338 29.4097L378.339 29.4106C378.491 29.794 378.656 30.2075 378.835 30.6513C379.562 29.2869 380.409 27.9846 381.378 26.5583L391.249 11.8606H399L381.681 36.4808L379.138 56.2017H372.295L374.899 36.2327L362.667 11.8606H369.994ZM253.265 56.2017L258.957 11.8606H267.92C272.582 11.8606 276.216 11.9226 279.425 14.5273C282.029 16.6358 283.422 19.8606 283.422 23.7056C283.422 28.2947 281.787 31.9536 278.759 34.3722C275.368 37.1009 271.25 37.2249 266.042 37.2249H262.47L260.047 56.2017H253.265ZM265.558 30.9614C272.825 30.9614 276.579 29.8451 276.579 24.0156C276.579 18.9924 273.309 18.1862 267.072 18.1862H264.892L263.257 30.9614H265.558ZM176.276 10.8059C189.477 10.8059 197.834 19.364 197.834 32.4493C197.834 39.5191 195.23 45.9687 190.506 50.5578C186.025 54.8989 179.909 57.3175 173.127 57.3175C160.531 57.3175 152.114 48.6354 152.114 35.7982C152.114 28.5423 154.718 22.0927 159.32 17.5656C163.68 13.2865 169.736 10.8059 176.276 10.8059ZM191.051 32.5733C191.051 23.3951 185.117 17.0695 175.912 17.0695C171.431 17.0695 167.192 18.8059 164.164 22.0307C160.713 25.6896 158.835 30.4648 158.835 35.5501C158.835 44.7904 164.831 51.116 173.611 51.116C183.482 51.116 191.051 43.116 191.051 32.5733ZM136.677 17.007C141.28 17.007 145.155 18.7434 148.546 22.3403L149.636 14.7744C146.064 12.1077 141.582 10.8674 136.072 10.8674C129.774 10.8674 124.263 13.224 120.085 17.5031C115.543 22.1543 113 28.7899 113 35.9217C113 48.6969 121.417 57.3791 134.073 57.3791C137.465 57.3791 141.098 56.5728 144.974 55.0225L146.487 46.5263C142.794 49.5651 138.797 51.1155 134.437 51.1155C125.777 51.1155 119.722 44.7899 119.722 35.6736C119.722 30.5263 121.599 25.5651 124.93 21.9062C127.776 18.7434 131.954 17.007 136.677 17.007Z" fill="black"/>
<path d="M76.0738 0H91.5923L87.9272 23.4053L100.17 0H116.001L100.56 25.8401L107.579 56H90.7345L86.8354 30.5526L82.7803 56H67.2617L76.0738 0Z" fill="black"/>
<path d="M52.0581 0H67.5767L58.7647 56H43.2461L52.0581 0Z" fill="black"/>
<path d="M23.9407 14.0589H9.43591L11.6974 0H47.6475L23.9407 41.6269H38.7574L36.4959 56H0L23.9407 14.0589Z" fill="black"/>
</svg>
